# MagicaVoxel @ Ephtracy

# group
o 

# material
mtllib Robot.mtl
usemtl palette

# normals
vn -1 0 0
vn 1 0 0
vn 0 0 1
vn 0 0 -1
vn 0 -1 0
vn 0 1 0

# texcoords
vt 0.0175781 0.5
vt 0.841797 0.5
vt 0.904297 0.5
vt 0.908203 0.5
vt 0.978516 0.5
vt 0.982422 0.5
vt 0.994141 0.5

# verts
v -1.7 0 0
v -1.7 0 -0.1
v -1.7 0.9 0
v -1.7 0.9 -0.1
v -1.6 0.9 0
v -1.6 0.9 -0.1
v -1.6 1 0
v -1.6 1 -0.1
v -1.5 1 0
v -1.5 1 -0.1
v -1.5 1.1 0
v -1.5 1.1 -0.1
v -1.5 3.9 0
v -1.5 3.9 -0.1
v -1.5 4.1 0
v -1.5 4.1 -0.1
v -1.3 3.8 0
v -1.3 3.8 -0.1
v -1.3 3.9 0
v -1.3 3.9 -0.1
v -1.2 3.7 0
v -1.2 3.7 -0.1
v -1.2 3.8 0
v -1.2 3.8 -0.1
v -1.1 3.6 0
v -1.1 3.6 -0.1
v -1.1 3.7 0
v -1.1 3.7 -0.1
v -1 1.7 0
v -1 1.7 -0.1
v -1 3.3 0
v -1 3.3 -0.1
v -1 3.5 0
v -1 3.5 -0.1
v -1 3.6 0
v -1 3.6 -0.1
v -0.9 3.4 0
v -0.9 3.4 -0.1
v -0.9 3.5 0
v -0.9 3.5 -0.1
v -0.8 3.3 0
v -0.8 3.3 -0.1
v -0.8 3.4 0
v -0.8 3.4 -0.1
v -0.4 1.1 0
v -0.4 1.1 -0.1
v -0.4 1.2 0
v -0.4 1.2 -0.1
v -0.4 1.3 0
v -0.4 1.3 -0.1
v -0.4 1.5 0
v -0.4 1.5 -0.1
v -0.4 1.6 0
v -0.4 1.6 -0.1
v -0.4 1.7 0
v -0.4 1.7 -0.1
v 0.7 3.3 0
v 0.7 3.3 -0.1
v 0.7 3.4 0
v 0.7 3.4 -0.1
v 0.8 3.4 0
v 0.8 3.4 -0.1
v 0.8 3.5 0
v 0.8 3.5 -0.1
v 0.9 3.5 0
v 0.9 3.5 -0.1
v 0.9 3.6 0
v 0.9 3.6 -0.1
v 1 3.6 0
v 1 3.6 -0.1
v 1 3.7 0
v 1 3.7 -0.1
v 1.1 3.7 0
v 1.1 3.7 -0.1
v 1.1 3.8 0
v 1.1 3.8 -0.1
v 1.2 3.8 0
v 1.2 3.8 -0.1
v 1.2 3.9 0
v 1.2 3.9 -0.1
v 1.3 3.9 0
v 1.3 3.9 -0.1
v 1.3 4 0
v 1.3 4 -0.1
v 1.3 4.1 0
v 1.3 4.1 -0.1
v -1.3 3.9 0
v -1.3 3.9 -0.1
v -1.3 4 0
v -1.3 4 -0.1
v -1.3 4.1 0
v -1.3 4.1 -0.1
v -1.2 3.8 0
v -1.2 3.8 -0.1
v -1.2 3.9 0
v -1.2 3.9 -0.1
v -1.1 3.7 0
v -1.1 3.7 -0.1
v -1.1 3.8 0
v -1.1 3.8 -0.1
v -1 3.6 0
v -1 3.6 -0.1
v -1 3.7 0
v -1 3.7 -0.1
v -0.9 3.5 0
v -0.9 3.5 -0.1
v -0.9 3.6 0
v -0.9 3.6 -0.1
v -0.8 3.4 0
v -0.8 3.4 -0.1
v -0.8 3.5 0
v -0.8 3.5 -0.1
v -0.7 3.3 0
v -0.7 3.3 -0.1
v -0.7 3.4 0
v -0.7 3.4 -0.1
v 0.4 1.1 0
v 0.4 1.1 -0.1
v 0.4 1.2 0
v 0.4 1.2 -0.1
v 0.4 1.3 0
v 0.4 1.3 -0.1
v 0.4 1.5 0
v 0.4 1.5 -0.1
v 0.4 1.6 0
v 0.4 1.6 -0.1
v 0.4 1.7 0
v 0.4 1.7 -0.1
v 0.8 3.3 0
v 0.8 3.3 -0.1
v 0.8 3.4 0
v 0.8 3.4 -0.1
v 0.9 3.4 0
v 0.9 3.4 -0.1
v 0.9 3.5 0
v 0.9 3.5 -0.1
v 1 1.7 0
v 1 1.7 -0.1
v 1 3.3 0
v 1 3.3 -0.1
v 1 3.5 0
v 1 3.5 -0.1
v 1 3.6 0
v 1 3.6 -0.1
v 1.1 3.6 0
v 1.1 3.6 -0.1
v 1.1 3.7 0
v 1.1 3.7 -0.1
v 1.2 3.7 0
v 1.2 3.7 -0.1
v 1.2 3.8 0
v 1.2 3.8 -0.1
v 1.3 3.8 0
v 1.3 3.8 -0.1
v 1.3 3.9 0
v 1.3 3.9 -0.1
v 1.5 1 0
v 1.5 1 -0.1
v 1.5 1.1 0
v 1.5 1.1 -0.1
v 1.5 3.9 0
v 1.5 3.9 -0.1
v 1.5 4.1 0
v 1.5 4.1 -0.1
v 1.6 0.9 0
v 1.6 0.9 -0.1
v 1.6 1 0
v 1.6 1 -0.1
v 1.7 0 0
v 1.7 0 -0.1
v 1.7 0.9 0
v 1.7 0.9 -0.1
v -1.7 0 0
v -1.7 0.9 0
v -1.6 0.9 0
v -1.6 1 0
v -1.5 1 0
v -1.5 1.1 0
v -1.5 3.9 0
v -1.5 4.1 0
v -1.4 3.9 0
v -1.4 4 0
v -1.3 3.8 0
v -1.3 3.9 0
v -1.3 4 0
v -1.3 4.1 0
v -1.2 3.7 0
v -1.2 3.8 0
v -1.2 3.9 0
v -1.1 3.6 0
v -1.1 3.7 0
v -1.1 3.8 0
v -1 0 0
v -1 0.4 0
v -1 1.7 0
v -1 3.3 0
v -1 3.5 0
v -1 3.6 0
v -1 3.7 0
v -0.9 3.4 0
v -0.9 3.5 0
v -0.9 3.6 0
v -0.8 3.3 0
v -0.8 3.4 0
v -0.8 3.5 0
v -0.7 1.8 0
v -0.7 2.1 0
v -0.7 2.2 0
v -0.7 2.6 0
v -0.7 3.3 0
v -0.7 3.4 0
v -0.6 2.2 0
v -0.6 2.3 0
v -0.6 2.8 0
v -0.6 3 0
v -0.5 2.1 0
v -0.5 2.2 0
v -0.5 2.3 0
v -0.5 2.4 0
v -0.4 1.1 0
v -0.4 1.2 0
v -0.4 1.3 0
v -0.4 1.5 0
v -0.4 1.6 0
v -0.4 1.7 0
v -0.4 2.2 0
v -0.4 2.3 0
v -0.4 2.4 0
v -0.4 2.5 0
v -0.4 2.8 0
v -0.4 3 0
v -0.3 2.2 0
v -0.3 2.3 0
v -0.3 2.4 0
v -0.3 2.5 0
v -0.2 2 0
v -0.2 2.2 0
v -0.2 2.3 0
v -0.2 2.4 0
v -0.0999999 1.9 0
v -0.0999999 2 0
v -0.0999999 2.1 0
v -0.0999999 2.3 0
v 1.19209e-007 1.9 0
v 1.19209e-007 2 0
v 1.19209e-007 2.1 0
v 1.19209e-007 2.3 0
v 0.1 2 0
v 0.1 2.2 0
v 0.1 2.3 0
v 0.1 2.5 0
v 0.2 2.2 0
v 0.2 2.3 0
v 0.2 2.4 0
v 0.2 2.5 0
v 0.3 2.1 0
v 0.3 2.3 0
v 0.4 1.1 0
v 0.4 1.2 0
v 0.4 1.3 0
v 0.4 1.5 0
v 0.4 1.6 0
v 0.4 1.7 0
v 0.4 2.3 0
v 0.4 2.4 0
v 0.4 2.8 0
v 0.4 3 0
v 0.5 2.2 0
v 0.5 2.3 0
v 0.6 2.8 0
v 0.6 3 0
v 0.7 1.8 0
v 0.7 2.1 0
v 0.7 2.2 0
v 0.7 2.6 0
v 0.7 3.3 0
v 0.7 3.4 0
v 0.8 3.3 0
v 0.8 3.4 0
v 0.8 3.5 0
v 0.9 3.4 0
v 0.9 3.5 0
v 0.9 3.6 0
v 1 0 0
v 1 0.4 0
v 1 1.7 0
v 1 3.3 0
v 1 3.5 0
v 1 3.6 0
v 1 3.7 0
v 1.1 3.6 0
v 1.1 3.7 0
v 1.1 3.8 0
v 1.2 3.7 0
v 1.2 3.8 0
v 1.2 3.9 0
v 1.3 3.8 0
v 1.3 3.9 0
v 1.3 4 0
v 1.3 4.1 0
v 1.4 3.9 0
v 1.4 4 0
v 1.5 1 0
v 1.5 1.1 0
v 1.5 3.9 0
v 1.5 4.1 0
v 1.6 0.9 0
v 1.6 1 0
v 1.7 0 0
v 1.7 0.9 0
v -1.7 0 -0.1
v -1.7 0.9 -0.1
v -1.6 0.9 -0.1
v -1.6 1 -0.1
v -1.5 1 -0.1
v -1.5 1.1 -0.1
v -1.5 3.9 -0.1
v -1.5 4.1 -0.1
v -1.4 3.9 -0.1
v -1.4 4 -0.1
v -1.3 3.8 -0.1
v -1.3 3.9 -0.1
v -1.3 4 -0.1
v -1.3 4.1 -0.1
v -1.2 3.7 -0.1
v -1.2 3.8 -0.1
v -1.2 3.9 -0.1
v -1.1 3.6 -0.1
v -1.1 3.7 -0.1
v -1.1 3.8 -0.1
v -1 0 -0.1
v -1 0.4 -0.1
v -1 1.7 -0.1
v -1 3.3 -0.1
v -1 3.5 -0.1
v -1 3.6 -0.1
v -1 3.7 -0.1
v -0.9 3.4 -0.1
v -0.9 3.5 -0.1
v -0.9 3.6 -0.1
v -0.8 3.3 -0.1
v -0.8 3.4 -0.1
v -0.8 3.5 -0.1
v -0.7 1.8 -0.1
v -0.7 2.1 -0.1
v -0.7 2.2 -0.1
v -0.7 2.6 -0.1
v -0.7 3.3 -0.1
v -0.7 3.4 -0.1
v -0.6 2.2 -0.1
v -0.6 2.3 -0.1
v -0.6 2.8 -0.1
v -0.6 3 -0.1
v -0.5 2.1 -0.1
v -0.5 2.2 -0.1
v -0.5 2.3 -0.1
v -0.5 2.4 -0.1
v -0.4 1.1 -0.1
v -0.4 1.2 -0.1
v -0.4 1.3 -0.1
v -0.4 1.5 -0.1
v -0.4 1.6 -0.1
v -0.4 1.7 -0.1
v -0.4 2.2 -0.1
v -0.4 2.3 -0.1
v -0.4 2.4 -0.1
v -0.4 2.5 -0.1
v -0.4 2.8 -0.1
v -0.4 3 -0.1
v -0.3 2.2 -0.1
v -0.3 2.3 -0.1
v -0.3 2.4 -0.1
v -0.3 2.5 -0.1
v -0.2 2 -0.1
v -0.2 2.2 -0.1
v -0.2 2.3 -0.1
v -0.2 2.4 -0.1
v -0.0999999 1.9 -0.1
v -0.0999999 2 -0.1
v -0.0999999 2.1 -0.1
v -0.0999999 2.3 -0.1
v 1.19209e-007 1.9 -0.1
v 1.19209e-007 2 -0.1
v 1.19209e-007 2.1 -0.1
v 1.19209e-007 2.3 -0.1
v 0.1 2 -0.1
v 0.1 2.2 -0.1
v 0.1 2.3 -0.1
v 0.1 2.5 -0.1
v 0.2 2.2 -0.1
v 0.2 2.3 -0.1
v 0.2 2.4 -0.1
v 0.2 2.5 -0.1
v 0.3 2.1 -0.1
v 0.3 2.3 -0.1
v 0.4 1.1 -0.1
v 0.4 1.2 -0.1
v 0.4 1.3 -0.1
v 0.4 1.5 -0.1
v 0.4 1.6 -0.1
v 0.4 1.7 -0.1
v 0.4 2.3 -0.1
v 0.4 2.4 -0.1
v 0.4 2.8 -0.1
v 0.4 3 -0.1
v 0.5 2.2 -0.1
v 0.5 2.3 -0.1
v 0.6 2.8 -0.1
v 0.6 3 -0.1
v 0.7 1.8 -0.1
v 0.7 2.1 -0.1
v 0.7 2.2 -0.1
v 0.7 2.6 -0.1
v 0.7 3.3 -0.1
v 0.7 3.4 -0.1
v 0.8 3.3 -0.1
v 0.8 3.4 -0.1
v 0.8 3.5 -0.1
v 0.9 3.4 -0.1
v 0.9 3.5 -0.1
v 0.9 3.6 -0.1
v 1 0 -0.1
v 1 0.4 -0.1
v 1 1.7 -0.1
v 1 3.3 -0.1
v 1 3.5 -0.1
v 1 3.6 -0.1
v 1 3.7 -0.1
v 1.1 3.6 -0.1
v 1.1 3.7 -0.1
v 1.1 3.8 -0.1
v 1.2 3.7 -0.1
v 1.2 3.8 -0.1
v 1.2 3.9 -0.1
v 1.3 3.8 -0.1
v 1.3 3.9 -0.1
v 1.3 4 -0.1
v 1.3 4.1 -0.1
v 1.4 3.9 -0.1
v 1.4 4 -0.1
v 1.5 1 -0.1
v 1.5 1.1 -0.1
v 1.5 3.9 -0.1
v 1.5 4.1 -0.1
v 1.6 0.9 -0.1
v 1.6 1 -0.1
v 1.7 0 -0.1
v 1.7 0.9 -0.1
v -1.7 0 0
v -1 0 0
v 1 0 0
v 1.7 0 0
v -1.7 0 -0.1
v -1 0 -0.1
v 1 0 -0.1
v 1.7 0 -0.1
v -1 1.7 0
v -0.4 1.7 0
v 0.4 1.7 0
v 1 1.7 0
v -1 1.7 -0.1
v -0.4 1.7 -0.1
v 0.4 1.7 -0.1
v 1 1.7 -0.1
v -0.9 3.4 0
v -0.8 3.4 0
v 0.8 3.4 0
v 0.9 3.4 0
v -0.9 3.4 -0.1
v -0.8 3.4 -0.1
v 0.8 3.4 -0.1
v 0.9 3.4 -0.1
v -1 3.5 0
v -0.9 3.5 0
v 0.9 3.5 0
v 1 3.5 0
v -1 3.5 -0.1
v -0.9 3.5 -0.1
v 0.9 3.5 -0.1
v 1 3.5 -0.1
v -1.1 3.6 0
v -1 3.6 0
v 1 3.6 0
v 1.1 3.6 0
v -1.1 3.6 -0.1
v -1 3.6 -0.1
v 1 3.6 -0.1
v 1.1 3.6 -0.1
v -1.2 3.7 0
v -1.1 3.7 0
v 1.1 3.7 0
v 1.2 3.7 0
v -1.2 3.7 -0.1
v -1.1 3.7 -0.1
v 1.1 3.7 -0.1
v 1.2 3.7 -0.1
v -1.3 3.8 0
v -1.2 3.8 0
v 1.2 3.8 0
v 1.3 3.8 0
v -1.3 3.8 -0.1
v -1.2 3.8 -0.1
v 1.2 3.8 -0.1
v 1.3 3.8 -0.1
v -1.5 3.9 0
v -1.4 3.9 0
v -1.3 3.9 0
v 1.3 3.9 0
v 1.4 3.9 0
v 1.5 3.9 0
v -1.5 3.9 -0.1
v -1.4 3.9 -0.1
v -1.3 3.9 -0.1
v 1.3 3.9 -0.1
v 1.4 3.9 -0.1
v 1.5 3.9 -0.1
v -1.7 0.9 0
v -1.6 0.9 0
v 1.6 0.9 0
v 1.7 0.9 0
v -1.7 0.9 -0.1
v -1.6 0.9 -0.1
v 1.6 0.9 -0.1
v 1.7 0.9 -0.1
v -1.6 1 0
v -1.5 1 0
v 1.5 1 0
v 1.6 1 0
v -1.6 1 -0.1
v -1.5 1 -0.1
v 1.5 1 -0.1
v 1.6 1 -0.1
v -1.5 1.1 0
v -0.4 1.1 0
v 0.4 1.1 0
v 1.5 1.1 0
v -1.5 1.1 -0.1
v -0.4 1.1 -0.1
v 0.4 1.1 -0.1
v 1.5 1.1 -0.1
v -1 3.3 0
v -0.8 3.3 0
v -0.7 3.3 0
v 0.7 3.3 0
v 0.8 3.3 0
v 1 3.3 0
v -1 3.3 -0.1
v -0.8 3.3 -0.1
v -0.7 3.3 -0.1
v 0.7 3.3 -0.1
v 0.8 3.3 -0.1
v 1 3.3 -0.1
v -0.8 3.4 0
v -0.7 3.4 0
v 0.7 3.4 0
v 0.8 3.4 0
v -0.8 3.4 -0.1
v -0.7 3.4 -0.1
v 0.7 3.4 -0.1
v 0.8 3.4 -0.1
v -0.9 3.5 0
v -0.8 3.5 0
v 0.8 3.5 0
v 0.9 3.5 0
v -0.9 3.5 -0.1
v -0.8 3.5 -0.1
v 0.8 3.5 -0.1
v 0.9 3.5 -0.1
v -1 3.6 0
v -0.9 3.6 0
v 0.9 3.6 0
v 1 3.6 0
v -1 3.6 -0.1
v -0.9 3.6 -0.1
v 0.9 3.6 -0.1
v 1 3.6 -0.1
v -1.1 3.7 0
v -1 3.7 0
v 1 3.7 0
v 1.1 3.7 0
v -1.1 3.7 -0.1
v -1 3.7 -0.1
v 1 3.7 -0.1
v 1.1 3.7 -0.1
v -1.2 3.8 0
v -1.1 3.8 0
v 1.1 3.8 0
v 1.2 3.8 0
v -1.2 3.8 -0.1
v -1.1 3.8 -0.1
v 1.1 3.8 -0.1
v 1.2 3.8 -0.1
v -1.3 3.9 0
v -1.2 3.9 0
v 1.2 3.9 0
v 1.3 3.9 0
v -1.3 3.9 -0.1
v -1.2 3.9 -0.1
v 1.2 3.9 -0.1
v 1.3 3.9 -0.1
v -1.5 4.1 0
v -1.3 4.1 0
v 1.3 4.1 0
v 1.5 4.1 0
v -1.5 4.1 -0.1
v -1.3 4.1 -0.1
v 1.3 4.1 -0.1
v 1.5 4.1 -0.1

# faces
f 3/5/1 2/5/1 1/5/1
f 4/5/1 2/5/1 3/5/1
f 7/5/1 6/5/1 5/5/1
f 8/5/1 6/5/1 7/5/1
f 11/5/1 10/5/1 9/5/1
f 12/5/1 10/5/1 11/5/1
f 15/2/1 14/2/1 13/2/1
f 16/2/1 14/2/1 15/2/1
f 19/5/1 18/5/1 17/5/1
f 20/5/1 18/5/1 19/5/1
f 23/5/1 22/5/1 21/5/1
f 24/5/1 22/5/1 23/5/1
f 27/5/1 26/5/1 25/5/1
f 28/5/1 26/5/1 27/5/1
f 31/5/1 30/5/1 29/5/1
f 32/5/1 30/5/1 31/5/1
f 35/5/1 34/5/1 33/5/1
f 36/5/1 34/5/1 35/5/1
f 39/5/1 38/5/1 37/5/1
f 40/5/1 38/5/1 39/5/1
f 43/5/1 42/5/1 41/5/1
f 44/5/1 42/5/1 43/5/1
f 47/5/1 46/5/1 45/5/1
f 48/5/1 46/5/1 47/5/1
f 49/6/1 48/6/1 47/6/1
f 50/6/1 48/6/1 49/6/1
f 51/5/1 50/5/1 49/5/1
f 52/5/1 50/5/1 51/5/1
f 53/6/1 52/6/1 51/6/1
f 54/6/1 52/6/1 53/6/1
f 55/5/1 54/5/1 53/5/1
f 56/5/1 54/5/1 55/5/1
f 59/5/1 58/5/1 57/5/1
f 60/5/1 58/5/1 59/5/1
f 63/5/1 62/5/1 61/5/1
f 64/5/1 62/5/1 63/5/1
f 67/5/1 66/5/1 65/5/1
f 68/5/1 66/5/1 67/5/1
f 71/5/1 70/5/1 69/5/1
f 72/5/1 70/5/1 71/5/1
f 75/5/1 74/5/1 73/5/1
f 76/5/1 74/5/1 75/5/1
f 79/5/1 78/5/1 77/5/1
f 80/5/1 78/5/1 79/5/1
f 83/5/1 82/5/1 81/5/1
f 84/5/1 82/5/1 83/5/1
f 85/2/1 84/2/1 83/2/1
f 86/2/1 84/2/1 85/2/1
f 87/5/2 88/5/2 89/5/2
f 89/5/2 88/5/2 90/5/2
f 89/2/2 90/2/2 91/2/2
f 91/2/2 90/2/2 92/2/2
f 93/5/2 94/5/2 95/5/2
f 95/5/2 94/5/2 96/5/2
f 97/5/2 98/5/2 99/5/2
f 99/5/2 98/5/2 100/5/2
f 101/5/2 102/5/2 103/5/2
f 103/5/2 102/5/2 104/5/2
f 105/5/2 106/5/2 107/5/2
f 107/5/2 106/5/2 108/5/2
f 109/5/2 110/5/2 111/5/2
f 111/5/2 110/5/2 112/5/2
f 113/5/2 114/5/2 115/5/2
f 115/5/2 114/5/2 116/5/2
f 117/5/2 118/5/2 119/5/2
f 119/5/2 118/5/2 120/5/2
f 119/6/2 120/6/2 121/6/2
f 121/6/2 120/6/2 122/6/2
f 121/5/2 122/5/2 123/5/2
f 123/5/2 122/5/2 124/5/2
f 123/6/2 124/6/2 125/6/2
f 125/6/2 124/6/2 126/6/2
f 125/5/2 126/5/2 127/5/2
f 127/5/2 126/5/2 128/5/2
f 129/5/2 130/5/2 131/5/2
f 131/5/2 130/5/2 132/5/2
f 133/5/2 134/5/2 135/5/2
f 135/5/2 134/5/2 136/5/2
f 137/5/2 138/5/2 139/5/2
f 139/5/2 138/5/2 140/5/2
f 141/5/2 142/5/2 143/5/2
f 143/5/2 142/5/2 144/5/2
f 145/5/2 146/5/2 147/5/2
f 147/5/2 146/5/2 148/5/2
f 149/5/2 150/5/2 151/5/2
f 151/5/2 150/5/2 152/5/2
f 153/5/2 154/5/2 155/5/2
f 155/5/2 154/5/2 156/5/2
f 157/5/2 158/5/2 159/5/2
f 159/5/2 158/5/2 160/5/2
f 161/2/2 162/2/2 163/2/2
f 163/2/2 162/2/2 164/2/2
f 165/5/2 166/5/2 167/5/2
f 167/5/2 166/5/2 168/5/2
f 169/5/2 170/5/2 171/5/2
f 171/5/2 170/5/2 172/5/2
f 175/5/3 174/5/3 173/5/3
f 177/5/3 176/5/3 175/5/3
f 181/2/3 180/2/3 179/2/3
f 182/2/3 180/2/3 181/2/3
f 184/5/3 182/5/3 181/5/3
f 185/2/3 180/2/3 182/2/3
f 185/5/3 182/5/3 184/5/3
f 186/2/3 180/2/3 185/2/3
f 188/5/3 184/5/3 183/5/3
f 189/5/3 184/5/3 188/5/3
f 191/5/3 188/5/3 187/5/3
f 192/5/3 188/5/3 191/5/3
f 193/5/3 175/5/3 173/5/3
f 193/5/3 177/5/3 175/5/3
f 193/5/3 178/5/3 177/5/3
f 194/5/3 178/5/3 193/5/3
f 198/5/3 191/5/3 190/5/3
f 199/5/3 191/5/3 198/5/3
f 201/5/3 198/5/3 197/5/3
f 202/5/3 198/5/3 201/5/3
f 203/5/3 196/5/3 195/5/3
f 204/5/3 201/5/3 200/5/3
f 205/5/3 201/5/3 204/5/3
f 206/5/3 203/5/3 195/5/3
f 206/5/3 204/5/3 203/5/3
f 207/5/3 204/5/3 206/5/3
f 208/5/3 204/5/3 207/5/3
f 209/5/3 204/5/3 208/5/3
f 210/5/3 204/5/3 209/5/3
f 211/5/3 204/5/3 210/5/3
f 212/1/3 208/1/3 207/1/3
f 212/4/3 209/4/3 208/4/3
f 213/4/3 209/4/3 212/4/3
f 214/5/3 210/5/3 209/5/3
f 215/5/3 210/5/3 214/5/3
f 216/4/3 207/4/3 206/4/3
f 216/1/3 212/1/3 207/1/3
f 216/1/3 213/1/3 212/1/3
f 217/1/3 213/1/3 216/1/3
f 218/4/3 209/4/3 213/4/3
f 218/1/3 213/1/3 217/1/3
f 219/4/3 209/4/3 218/4/3
f 220/5/3 178/5/3 194/5/3
f 225/5/3 206/5/3 195/5/3
f 226/4/3 217/4/3 216/4/3
f 226/1/3 218/1/3 217/1/3
f 226/1/3 219/1/3 218/1/3
f 227/1/3 219/1/3 226/1/3
f 228/4/3 209/4/3 219/4/3
f 228/1/3 219/1/3 227/1/3
f 229/4/3 209/4/3 228/4/3
f 230/7/3 215/7/3 214/7/3
f 230/5/3 214/5/3 209/5/3
f 231/5/3 210/5/3 215/5/3
f 231/7/3 215/7/3 230/7/3
f 232/4/3 227/4/3 226/4/3
f 232/4/3 226/4/3 216/4/3
f 233/1/3 229/1/3 228/1/3
f 233/4/3 227/4/3 232/4/3
f 233/1/3 228/1/3 227/1/3
f 234/1/3 229/1/3 233/1/3
f 235/4/3 209/4/3 229/4/3
f 235/1/3 229/1/3 234/1/3
f 236/4/3 232/4/3 216/4/3
f 236/4/3 216/4/3 206/4/3
f 237/1/3 234/1/3 233/1/3
f 237/4/3 232/4/3 236/4/3
f 237/1/3 233/1/3 232/1/3
f 238/1/3 234/1/3 237/1/3
f 239/4/3 235/4/3 234/4/3
f 239/1/3 234/1/3 238/1/3
f 240/4/3 236/4/3 206/4/3
f 241/1/3 238/1/3 237/1/3
f 241/4/3 236/4/3 240/4/3
f 241/1/3 237/1/3 236/1/3
f 242/1/3 238/1/3 241/1/3
f 243/4/3 239/4/3 238/4/3
f 243/1/3 238/1/3 242/1/3
f 244/4/3 240/4/3 206/4/3
f 244/1/3 242/1/3 241/1/3
f 244/1/3 241/1/3 240/1/3
f 245/1/3 242/1/3 244/1/3
f 246/4/3 243/4/3 242/4/3
f 246/1/3 242/1/3 245/1/3
f 247/4/3 239/4/3 243/4/3
f 247/4/3 243/4/3 246/4/3
f 248/1/3 246/1/3 245/1/3
f 248/4/3 245/4/3 244/4/3
f 248/1/3 247/1/3 246/1/3
f 249/1/3 247/1/3 248/1/3
f 250/4/3 239/4/3 247/4/3
f 250/1/3 247/1/3 249/1/3
f 251/4/3 235/4/3 239/4/3
f 251/4/3 239/4/3 250/4/3
f 251/4/3 209/4/3 235/4/3
f 252/1/3 250/1/3 249/1/3
f 252/4/3 249/4/3 248/4/3
f 252/1/3 251/1/3 250/1/3
f 253/1/3 251/1/3 252/1/3
f 254/1/3 251/1/3 253/1/3
f 255/4/3 209/4/3 251/4/3
f 255/1/3 251/1/3 254/1/3
f 256/4/3 252/4/3 248/4/3
f 256/4/3 253/4/3 252/4/3
f 257/1/3 254/1/3 253/1/3
f 257/4/3 253/4/3 256/4/3
f 258/5/3 220/5/3 194/5/3
f 258/5/3 221/5/3 220/5/3
f 259/6/3 222/6/3 221/6/3
f 259/5/3 221/5/3 258/5/3
f 260/5/3 223/5/3 222/5/3
f 260/6/3 222/6/3 259/6/3
f 261/6/3 224/6/3 223/6/3
f 261/5/3 223/5/3 260/5/3
f 262/5/3 225/5/3 224/5/3
f 262/6/3 224/6/3 261/6/3
f 263/5/3 206/5/3 225/5/3
f 263/5/3 225/5/3 262/5/3
f 264/1/3 254/1/3 257/1/3
f 264/1/3 257/1/3 256/1/3
f 265/4/3 255/4/3 254/4/3
f 265/1/3 254/1/3 264/1/3
f 266/5/3 230/5/3 209/5/3
f 266/5/3 231/5/3 230/5/3
f 267/5/3 210/5/3 231/5/3
f 267/5/3 231/5/3 266/5/3
f 268/1/3 264/1/3 256/1/3
f 269/4/3 265/4/3 264/4/3
f 269/1/3 264/1/3 268/1/3
f 270/5/3 266/5/3 209/5/3
f 270/7/3 267/7/3 266/7/3
f 271/5/3 210/5/3 267/5/3
f 271/7/3 267/7/3 270/7/3
f 272/4/3 256/4/3 248/4/3
f 272/4/3 248/4/3 244/4/3
f 272/4/3 244/4/3 206/4/3
f 272/5/3 206/5/3 263/5/3
f 273/1/3 268/1/3 256/1/3
f 273/4/3 256/4/3 272/4/3
f 274/4/3 269/4/3 268/4/3
f 274/1/3 268/1/3 273/1/3
f 275/4/3 265/4/3 269/4/3
f 275/4/3 269/4/3 274/4/3
f 275/5/3 270/5/3 209/5/3
f 275/4/3 255/4/3 265/4/3
f 275/5/3 271/5/3 270/5/3
f 275/4/3 209/4/3 255/4/3
f 276/5/3 210/5/3 271/5/3
f 276/5/3 271/5/3 275/5/3
f 278/5/3 274/5/3 273/5/3
f 278/5/3 277/5/3 276/5/3
f 278/5/3 276/5/3 275/5/3
f 278/5/3 273/5/3 272/5/3
f 278/5/3 275/5/3 274/5/3
f 279/5/3 277/5/3 278/5/3
f 281/5/3 280/5/3 279/5/3
f 282/5/3 280/5/3 281/5/3
f 284/3/3 194/3/3 193/3/3
f 285/5/3 258/5/3 194/5/3
f 285/3/3 194/3/3 284/3/3
f 286/5/3 272/5/3 263/5/3
f 286/5/3 278/5/3 272/5/3
f 287/5/3 278/5/3 286/5/3
f 288/5/3 283/5/3 282/5/3
f 289/5/3 283/5/3 288/5/3
f 291/5/3 290/5/3 289/5/3
f 292/5/3 290/5/3 291/5/3
f 294/5/3 293/5/3 292/5/3
f 295/5/3 293/5/3 294/5/3
f 297/5/3 296/5/3 295/5/3
f 298/5/3 296/5/3 297/5/3
f 301/5/3 299/5/3 298/5/3
f 302/2/3 300/2/3 299/2/3
f 302/5/3 299/5/3 301/5/3
f 303/5/3 258/5/3 285/5/3
f 303/5/3 285/5/3 284/5/3
f 304/5/3 258/5/3 303/5/3
f 305/2/3 302/2/3 301/2/3
f 306/2/3 300/2/3 302/2/3
f 306/2/3 302/2/3 305/2/3
f 307/5/3 303/5/3 284/5/3
f 308/5/3 303/5/3 307/5/3
f 309/5/3 307/5/3 284/5/3
f 310/5/3 307/5/3 309/5/3
f 311/5/4 312/5/4 313/5/4
f 313/5/4 314/5/4 315/5/4
f 317/2/4 318/2/4 319/2/4
f 319/2/4 318/2/4 320/2/4
f 319/5/4 320/5/4 322/5/4
f 320/2/4 318/2/4 323/2/4
f 322/5/4 320/5/4 323/5/4
f 323/2/4 318/2/4 324/2/4
f 321/5/4 322/5/4 326/5/4
f 326/5/4 322/5/4 327/5/4
f 325/5/4 326/5/4 329/5/4
f 329/5/4 326/5/4 330/5/4
f 311/5/4 313/5/4 331/5/4
f 313/5/4 315/5/4 331/5/4
f 315/5/4 316/5/4 331/5/4
f 331/5/4 316/5/4 332/5/4
f 328/5/4 329/5/4 336/5/4
f 336/5/4 329/5/4 337/5/4
f 335/5/4 336/5/4 339/5/4
f 339/5/4 336/5/4 340/5/4
f 333/5/4 334/5/4 341/5/4
f 338/5/4 339/5/4 342/5/4
f 342/5/4 339/5/4 343/5/4
f 333/5/4 341/5/4 344/5/4
f 341/5/4 342/5/4 344/5/4
f 344/5/4 342/5/4 345/5/4
f 345/5/4 342/5/4 346/5/4
f 346/5/4 342/5/4 347/5/4
f 347/5/4 342/5/4 348/5/4
f 348/5/4 342/5/4 349/5/4
f 345/1/4 346/1/4 350/1/4
f 346/4/4 347/4/4 350/4/4
f 350/4/4 347/4/4 351/4/4
f 347/5/4 348/5/4 352/5/4
f 352/5/4 348/5/4 353/5/4
f 344/4/4 345/4/4 354/4/4
f 345/1/4 350/1/4 354/1/4
f 350/1/4 351/1/4 354/1/4
f 354/1/4 351/1/4 355/1/4
f 351/4/4 347/4/4 356/4/4
f 355/1/4 351/1/4 356/1/4
f 356/4/4 347/4/4 357/4/4
f 332/5/4 316/5/4 358/5/4
f 333/5/4 344/5/4 363/5/4
f 354/4/4 355/4/4 364/4/4
f 355/1/4 356/1/4 364/1/4
f 356/1/4 357/1/4 364/1/4
f 364/1/4 357/1/4 365/1/4
f 357/4/4 347/4/4 366/4/4
f 365/1/4 357/1/4 366/1/4
f 366/4/4 347/4/4 367/4/4
f 352/7/4 353/7/4 368/7/4
f 347/5/4 352/5/4 368/5/4
f 353/5/4 348/5/4 369/5/4
f 368/7/4 353/7/4 369/7/4
f 364/4/4 365/4/4 370/4/4
f 354/4/4 364/4/4 370/4/4
f 366/1/4 367/1/4 371/1/4
f 370/4/4 365/4/4 371/4/4
f 365/1/4 366/1/4 371/1/4
f 371/1/4 367/1/4 372/1/4
f 367/4/4 347/4/4 373/4/4
f 372/1/4 367/1/4 373/1/4
f 354/4/4 370/4/4 374/4/4
f 344/4/4 354/4/4 374/4/4
f 371/1/4 372/1/4 375/1/4
f 374/4/4 370/4/4 375/4/4
f 370/1/4 371/1/4 375/1/4
f 375/1/4 372/1/4 376/1/4
f 372/4/4 373/4/4 377/4/4
f 376/1/4 372/1/4 377/1/4
f 344/4/4 374/4/4 378/4/4
f 375/1/4 376/1/4 379/1/4
f 378/4/4 374/4/4 379/4/4
f 374/1/4 375/1/4 379/1/4
f 379/1/4 376/1/4 380/1/4
f 376/4/4 377/4/4 381/4/4
f 380/1/4 376/1/4 381/1/4
f 344/4/4 378/4/4 382/4/4
f 379/1/4 380/1/4 382/1/4
f 378/1/4 379/1/4 382/1/4
f 382/1/4 380/1/4 383/1/4
f 380/4/4 381/4/4 384/4/4
f 383/1/4 380/1/4 384/1/4
f 381/4/4 377/4/4 385/4/4
f 384/4/4 381/4/4 385/4/4
f 383/1/4 384/1/4 386/1/4
f 382/4/4 383/4/4 386/4/4
f 384/1/4 385/1/4 386/1/4
f 386/1/4 385/1/4 387/1/4
f 385/4/4 377/4/4 388/4/4
f 387/1/4 385/1/4 388/1/4
f 377/4/4 373/4/4 389/4/4
f 388/4/4 377/4/4 389/4/4
f 373/4/4 347/4/4 389/4/4
f 387/1/4 388/1/4 390/1/4
f 386/4/4 387/4/4 390/4/4
f 388/1/4 389/1/4 390/1/4
f 390/1/4 389/1/4 391/1/4
f 391/1/4 389/1/4 392/1/4
f 389/4/4 347/4/4 393/4/4
f 392/1/4 389/1/4 393/1/4
f 386/4/4 390/4/4 394/4/4
f 390/4/4 391/4/4 394/4/4
f 391/1/4 392/1/4 395/1/4
f 394/4/4 391/4/4 395/4/4
f 332/5/4 358/5/4 396/5/4
f 358/5/4 359/5/4 396/5/4
f 359/6/4 360/6/4 397/6/4
f 396/5/4 359/5/4 397/5/4
f 360/5/4 361/5/4 398/5/4
f 397/6/4 360/6/4 398/6/4
f 361/6/4 362/6/4 399/6/4
f 398/5/4 361/5/4 399/5/4
f 362/5/4 363/5/4 400/5/4
f 399/6/4 362/6/4 400/6/4
f 363/5/4 344/5/4 401/5/4
f 400/5/4 363/5/4 401/5/4
f 395/1/4 392/1/4 402/1/4
f 394/1/4 395/1/4 402/1/4
f 392/4/4 393/4/4 403/4/4
f 402/1/4 392/1/4 403/1/4
f 347/5/4 368/5/4 404/5/4
f 368/5/4 369/5/4 404/5/4
f 369/5/4 348/5/4 405/5/4
f 404/5/4 369/5/4 405/5/4
f 394/1/4 402/1/4 406/1/4
f 402/4/4 403/4/4 407/4/4
f 406/1/4 402/1/4 407/1/4
f 347/5/4 404/5/4 408/5/4
f 404/7/4 405/7/4 408/7/4
f 405/5/4 348/5/4 409/5/4
f 408/7/4 405/7/4 409/7/4
f 386/4/4 394/4/4 410/4/4
f 382/4/4 386/4/4 410/4/4
f 344/4/4 382/4/4 410/4/4
f 401/5/4 344/5/4 410/5/4
f 394/1/4 406/1/4 411/1/4
f 410/4/4 394/4/4 411/4/4
f 406/4/4 407/4/4 412/4/4
f 411/1/4 406/1/4 412/1/4
f 407/4/4 403/4/4 413/4/4
f 412/4/4 407/4/4 413/4/4
f 347/5/4 408/5/4 413/5/4
f 403/4/4 393/4/4 413/4/4
f 408/5/4 409/5/4 413/5/4
f 393/4/4 347/4/4 413/4/4
f 409/5/4 348/5/4 414/5/4
f 413/5/4 409/5/4 414/5/4
f 411/5/4 412/5/4 416/5/4
f 414/5/4 415/5/4 416/5/4
f 413/5/4 414/5/4 416/5/4
f 410/5/4 411/5/4 416/5/4
f 412/5/4 413/5/4 416/5/4
f 416/5/4 415/5/4 417/5/4
f 417/5/4 418/5/4 419/5/4
f 419/5/4 418/5/4 420/5/4
f 331/3/4 332/3/4 422/3/4
f 332/5/4 396/5/4 423/5/4
f 422/3/4 332/3/4 423/3/4
f 401/5/4 410/5/4 424/5/4
f 410/5/4 416/5/4 424/5/4
f 424/5/4 416/5/4 425/5/4
f 420/5/4 421/5/4 426/5/4
f 426/5/4 421/5/4 427/5/4
f 427/5/4 428/5/4 429/5/4
f 429/5/4 428/5/4 430/5/4
f 430/5/4 431/5/4 432/5/4
f 432/5/4 431/5/4 433/5/4
f 433/5/4 434/5/4 435/5/4
f 435/5/4 434/5/4 436/5/4
f 436/5/4 437/5/4 439/5/4
f 437/2/4 438/2/4 440/2/4
f 439/5/4 437/5/4 440/5/4
f 423/5/4 396/5/4 441/5/4
f 422/5/4 423/5/4 441/5/4
f 441/5/4 396/5/4 442/5/4
f 439/2/4 440/2/4 443/2/4
f 440/2/4 438/2/4 444/2/4
f 443/2/4 440/2/4 444/2/4
f 422/5/4 441/5/4 445/5/4
f 445/5/4 441/5/4 446/5/4
f 422/5/4 445/5/4 447/5/4
f 447/5/4 445/5/4 448/5/4
f 453/5/5 450/5/5 449/5/5
f 454/3/5 451/3/5 450/3/5
f 454/5/5 450/5/5 453/5/5
f 455/5/5 452/5/5 451/5/5
f 455/3/5 451/3/5 454/3/5
f 456/5/5 452/5/5 455/5/5
f 461/5/5 458/5/5 457/5/5
f 462/5/5 458/5/5 461/5/5
f 463/5/5 460/5/5 459/5/5
f 464/5/5 460/5/5 463/5/5
f 469/5/5 466/5/5 465/5/5
f 470/5/5 466/5/5 469/5/5
f 471/5/5 468/5/5 467/5/5
f 472/5/5 468/5/5 471/5/5
f 477/5/5 474/5/5 473/5/5
f 478/5/5 474/5/5 477/5/5
f 479/5/5 476/5/5 475/5/5
f 480/5/5 476/5/5 479/5/5
f 485/5/5 482/5/5 481/5/5
f 486/5/5 482/5/5 485/5/5
f 487/5/5 484/5/5 483/5/5
f 488/5/5 484/5/5 487/5/5
f 493/5/5 490/5/5 489/5/5
f 494/5/5 490/5/5 493/5/5
f 495/5/5 492/5/5 491/5/5
f 496/5/5 492/5/5 495/5/5
f 501/5/5 498/5/5 497/5/5
f 502/5/5 498/5/5 501/5/5
f 503/5/5 500/5/5 499/5/5
f 504/5/5 500/5/5 503/5/5
f 511/2/5 506/2/5 505/2/5
f 512/5/5 507/5/5 506/5/5
f 512/2/5 506/2/5 511/2/5
f 513/5/5 507/5/5 512/5/5
f 514/5/5 509/5/5 508/5/5
f 515/2/5 510/2/5 509/2/5
f 515/5/5 509/5/5 514/5/5
f 516/2/5 510/2/5 515/2/5
f 517/5/6 518/5/6 521/5/6
f 521/5/6 518/5/6 522/5/6
f 519/5/6 520/5/6 523/5/6
f 523/5/6 520/5/6 524/5/6
f 525/5/6 526/5/6 529/5/6
f 529/5/6 526/5/6 530/5/6
f 527/5/6 528/5/6 531/5/6
f 531/5/6 528/5/6 532/5/6
f 533/5/6 534/5/6 537/5/6
f 537/5/6 534/5/6 538/5/6
f 535/5/6 536/5/6 539/5/6
f 539/5/6 536/5/6 540/5/6
f 541/5/6 542/5/6 547/5/6
f 547/5/6 542/5/6 548/5/6
f 543/5/6 544/5/6 549/5/6
f 549/5/6 544/5/6 550/5/6
f 545/5/6 546/5/6 551/5/6
f 551/5/6 546/5/6 552/5/6
f 553/5/6 554/5/6 557/5/6
f 557/5/6 554/5/6 558/5/6
f 555/5/6 556/5/6 559/5/6
f 559/5/6 556/5/6 560/5/6
f 561/5/6 562/5/6 565/5/6
f 565/5/6 562/5/6 566/5/6
f 563/5/6 564/5/6 567/5/6
f 567/5/6 564/5/6 568/5/6
f 569/5/6 570/5/6 573/5/6
f 573/5/6 570/5/6 574/5/6
f 571/5/6 572/5/6 575/5/6
f 575/5/6 572/5/6 576/5/6
f 577/5/6 578/5/6 581/5/6
f 581/5/6 578/5/6 582/5/6
f 579/5/6 580/5/6 583/5/6
f 583/5/6 580/5/6 584/5/6
f 585/5/6 586/5/6 589/5/6
f 589/5/6 586/5/6 590/5/6
f 587/5/6 588/5/6 591/5/6
f 591/5/6 588/5/6 592/5/6
f 593/5/6 594/5/6 597/5/6
f 597/5/6 594/5/6 598/5/6
f 595/5/6 596/5/6 599/5/6
f 599/5/6 596/5/6 600/5/6
f 601/2/6 602/2/6 605/2/6
f 605/2/6 602/2/6 606/2/6
f 603/2/6 604/2/6 607/2/6
f 607/2/6 604/2/6 608/2/6
