# MagicaVoxel @ Ephtracy

# group
o 

# material
mtllib TutGuy.mtl
usemtl palette

# normals
vn -1 0 0
vn 1 0 0
vn 0 0 1
vn 0 0 -1
vn 0 -1 0
vn 0 1 0

# texcoords
vt 0.0292969 0.5
vt 0.0566406 0.5
vt 0.154297 0.5
vt 0.603516 0.5
vt 0.841797 0.5
vt 0.923828 0.5
vt 0.935547 0.5
vt 0.943359 0.5

# verts
v 0.9 2 0
v 0.9 2 -0.1
v 0.9 2.1 0
v 0.9 2.1 -0.1
v 1 2.1 0
v 1 2.1 -0.1
v 1 2.2 0
v 1 2.2 -0.1
v 1.1 2.2 0
v 1.1 2.2 -0.1
v 1.1 2.3 0
v 1.1 2.3 -0.1
v 1.2 2.3 0
v 1.2 2.3 -0.1
v 1.2 2.4 0
v 1.2 2.4 -0.1
v 1.3 2.4 0
v 1.3 2.4 -0.1
v 1.3 2.5 0
v 1.3 2.5 -0.1
v 1.4 4.5 0
v 1.4 4.5 -0.1
v 1.4 4.6 0
v 1.4 4.6 -0.1
v 1.4 5 0
v 1.4 5 -0.1
v 1.4 5.2 0
v 1.4 5.2 -0.1
v 1.5 2.5 0
v 1.5 2.5 -0.1
v 1.5 2.6 0
v 1.5 2.6 -0.1
v 1.5 3.7 0
v 1.5 3.7 -0.1
v 1.5 3.8 0
v 1.5 3.8 -0.1
v 1.5 4.3 0
v 1.5 4.3 -0.1
v 1.5 4.4 0
v 1.5 4.4 -0.1
v 1.5 4.6 0
v 1.5 4.6 -0.1
v 1.5 4.7 0
v 1.5 4.7 -0.1
v 1.5 5.2 0
v 1.5 5.2 -0.1
v 1.5 5.3 0
v 1.5 5.3 -0.1
v 1.6 3.5 0
v 1.6 3.5 -0.1
v 1.6 3.7 0
v 1.6 3.7 -0.1
v 1.6 4.4 0
v 1.6 4.4 -0.1
v 1.6 4.5 0
v 1.6 4.5 -0.1
v 1.6 4.9 0
v 1.6 4.9 -0.1
v 1.6 5 0
v 1.6 5 -0.1
v 1.7 3.4 0
v 1.7 3.4 -0.1
v 1.7 3.5 0
v 1.7 3.5 -0.1
v 1.7 4.7 0
v 1.7 4.7 -0.1
v 1.7 4.8 0
v 1.7 4.8 -0.1
v 1.7 4.9 0
v 1.7 4.9 -0.1
v 1.8 2.6 0
v 1.8 2.6 -0.1
v 1.8 2.7 0
v 1.8 2.7 -0.1
v 1.8 3.3 0
v 1.8 3.3 -0.1
v 1.8 3.4 0
v 1.8 3.4 -0.1
v 1.9 3.2 0
v 1.9 3.2 -0.1
v 1.9 3.3 0
v 1.9 3.3 -0.1
v 2.1 3.1 0
v 2.1 3.1 -0.1
v 2.1 3.2 0
v 2.1 3.2 -0.1
v 2.2 2.7 0
v 2.2 2.7 -0.1
v 2.2 3.1 0
v 2.2 3.1 -0.1
v 3.4 4.7 0
v 3.4 4.7 -0.1
v 3.4 4.8 0
v 3.4 4.8 -0.1
v 3.5 4.4 0
v 3.5 4.4 -0.1
v 3.5 4.5 0
v 3.5 4.5 -0.1
v 2.8 2.7 0
v 2.8 2.7 -0.1
v 2.8 3.1 0
v 2.8 3.1 -0.1
v 2.9 3.1 0
v 2.9 3.1 -0.1
v 2.9 3.2 0
v 2.9 3.2 -0.1
v 3.1 3.2 0
v 3.1 3.2 -0.1
v 3.1 3.3 0
v 3.1 3.3 -0.1
v 3.2 2.6 0
v 3.2 2.6 -0.1
v 3.2 2.7 0
v 3.2 2.7 -0.1
v 3.2 3.3 0
v 3.2 3.3 -0.1
v 3.2 3.4 0
v 3.2 3.4 -0.1
v 3.3 3.4 0
v 3.3 3.4 -0.1
v 3.3 3.5 0
v 3.3 3.5 -0.1
v 3.3 4.7 0
v 3.3 4.7 -0.1
v 3.3 4.8 0
v 3.3 4.8 -0.1
v 3.3 4.9 0
v 3.3 4.9 -0.1
v 3.4 3.5 0
v 3.4 3.5 -0.1
v 3.4 3.7 0
v 3.4 3.7 -0.1
v 3.4 4.4 0
v 3.4 4.4 -0.1
v 3.4 4.5 0
v 3.4 4.5 -0.1
v 3.4 4.9 0
v 3.4 4.9 -0.1
v 3.4 5 0
v 3.4 5 -0.1
v 3.5 2.5 0
v 3.5 2.5 -0.1
v 3.5 2.6 0
v 3.5 2.6 -0.1
v 3.5 3.7 0
v 3.5 3.7 -0.1
v 3.5 3.8 0
v 3.5 3.8 -0.1
v 3.5 4.3 0
v 3.5 4.3 -0.1
v 3.5 4.4 0
v 3.5 4.4 -0.1
v 3.5 4.6 0
v 3.5 4.6 -0.1
v 3.5 4.8 0
v 3.5 4.8 -0.1
v 3.5 5.2 0
v 3.5 5.2 -0.1
v 3.5 5.3 0
v 3.5 5.3 -0.1
v 3.6 4.4 0
v 3.6 4.4 -0.1
v 3.6 4.6 0
v 3.6 4.6 -0.1
v 3.6 5 0
v 3.6 5 -0.1
v 3.6 5.2 0
v 3.6 5.2 -0.1
v 3.7 2.4 0
v 3.7 2.4 -0.1
v 3.7 2.5 0
v 3.7 2.5 -0.1
v 3.8 2.3 0
v 3.8 2.3 -0.1
v 3.8 2.4 0
v 3.8 2.4 -0.1
v 3.9 2.2 0
v 3.9 2.2 -0.1
v 3.9 2.3 0
v 3.9 2.3 -0.1
v 4 2.1 0
v 4 2.1 -0.1
v 4 2.2 0
v 4 2.2 -0.1
v 4.1 2 0
v 4.1 2 -0.1
v 4.1 2.1 0
v 4.1 2.1 -0.1
v 0.9 2 0
v 0.9 2.1 0
v 1 2.1 0
v 1 2.2 0
v 1.1 2.2 0
v 1.1 2.3 0
v 1.2 2.3 0
v 1.2 2.4 0
v 1.3 2.4 0
v 1.3 2.5 0
v 1.4 2 0
v 1.4 2.5 0
v 1.4 4.5 0
v 1.4 4.6 0
v 1.4 5 0
v 1.4 5.2 0
v 1.5 2.5 0
v 1.5 2.6 0
v 1.5 3.7 0
v 1.5 3.8 0
v 1.5 4.3 0
v 1.5 4.4 0
v 1.5 4.6 0
v 1.5 4.7 0
v 1.5 5.2 0
v 1.5 5.3 0
v 1.6 3.5 0
v 1.6 3.7 0
v 1.6 3.8 0
v 1.6 4.3 0
v 1.6 4.4 0
v 1.6 4.5 0
v 1.6 4.6 0
v 1.6 4.9 0
v 1.6 5 0
v 1.7 3.4 0
v 1.7 3.5 0
v 1.7 4.6 0
v 1.7 4.7 0
v 1.7 4.8 0
v 1.7 4.9 0
v 1.8 2.2 0
v 1.8 2.6 0
v 1.8 2.7 0
v 1.8 3.3 0
v 1.8 3.4 0
v 1.9 2.1 0
v 1.9 2.2 0
v 1.9 3.2 0
v 1.9 3.3 0
v 1.9 4.5 0
v 1.9 4.6 0
v 2 4.2 0
v 2 4.4 0
v 2.1 3.1 0
v 2.1 3.2 0
v 2.1 3.5 0
v 2.1 3.6 0
v 2.2 2.7 0
v 2.2 3.1 0
v 2.2 3.4 0
v 2.2 3.5 0
v 2.2 4.2 0
v 2.2 4.4 0
v 2.3 3.5 0
v 2.3 3.6 0
v 2.4 3.3 0
v 2.4 3.4 0
v 2.4 3.8 0
v 2.4 4.1 0
v 2.6 3.3 0
v 2.6 3.4 0
v 2.6 3.8 0
v 2.6 4.1 0
v 2.7 3.5 0
v 2.7 3.6 0
v 2.8 2.7 0
v 2.8 3.1 0
v 2.8 3.4 0
v 2.8 3.5 0
v 2.8 4.2 0
v 2.8 4.4 0
v 2.9 3.1 0
v 2.9 3.2 0
v 2.9 3.5 0
v 2.9 3.6 0
v 3 4.2 0
v 3 4.4 0
v 3.1 2.1 0
v 3.1 2.2 0
v 3.1 3.2 0
v 3.1 3.3 0
v 3.1 4.5 0
v 3.1 4.6 0
v 3.2 2.2 0
v 3.2 2.6 0
v 3.2 2.7 0
v 3.2 3.3 0
v 3.2 3.4 0
v 3.3 3.4 0
v 3.3 3.5 0
v 3.3 4.6 0
v 3.3 4.7 0
v 3.3 4.8 0
v 3.3 4.9 0
v 3.4 3.5 0
v 3.4 3.7 0
v 3.4 3.8 0
v 3.4 4.3 0
v 3.4 4.4 0
v 3.4 4.5 0
v 3.4 4.6 0
v 3.4 4.7 0
v 3.4 4.8 0
v 3.4 4.9 0
v 3.4 5 0
v 3.5 2.5 0
v 3.5 2.6 0
v 3.5 3.7 0
v 3.5 3.8 0
v 3.5 4.3 0
v 3.5 4.4 0
v 3.5 4.5 0
v 3.5 4.6 0
v 3.5 4.8 0
v 3.5 5.2 0
v 3.5 5.3 0
v 3.6 2 0
v 3.6 2.5 0
v 3.6 4.4 0
v 3.6 4.6 0
v 3.6 5 0
v 3.6 5.2 0
v 3.7 2.4 0
v 3.7 2.5 0
v 3.8 2.3 0
v 3.8 2.4 0
v 3.9 2.2 0
v 3.9 2.3 0
v 4 2.1 0
v 4 2.2 0
v 4.1 2 0
v 4.1 2.1 0
v 0.9 2 -0.1
v 0.9 2.1 -0.1
v 1 2.1 -0.1
v 1 2.2 -0.1
v 1.1 2.2 -0.1
v 1.1 2.3 -0.1
v 1.2 2.3 -0.1
v 1.2 2.4 -0.1
v 1.3 2.4 -0.1
v 1.3 2.5 -0.1
v 1.4 2 -0.1
v 1.4 2.5 -0.1
v 1.4 4.5 -0.1
v 1.4 4.6 -0.1
v 1.4 5 -0.1
v 1.4 5.2 -0.1
v 1.5 2.5 -0.1
v 1.5 2.6 -0.1
v 1.5 3.7 -0.1
v 1.5 3.8 -0.1
v 1.5 4.3 -0.1
v 1.5 4.4 -0.1
v 1.5 4.6 -0.1
v 1.5 4.7 -0.1
v 1.5 5.2 -0.1
v 1.5 5.3 -0.1
v 1.6 3.5 -0.1
v 1.6 3.7 -0.1
v 1.6 3.8 -0.1
v 1.6 4.3 -0.1
v 1.6 4.4 -0.1
v 1.6 4.5 -0.1
v 1.6 4.6 -0.1
v 1.6 4.9 -0.1
v 1.6 5 -0.1
v 1.7 3.4 -0.1
v 1.7 3.5 -0.1
v 1.7 4.6 -0.1
v 1.7 4.7 -0.1
v 1.7 4.8 -0.1
v 1.7 4.9 -0.1
v 1.8 2.2 -0.1
v 1.8 2.6 -0.1
v 1.8 2.7 -0.1
v 1.8 3.3 -0.1
v 1.8 3.4 -0.1
v 1.9 2.1 -0.1
v 1.9 2.2 -0.1
v 1.9 3.2 -0.1
v 1.9 3.3 -0.1
v 1.9 4.5 -0.1
v 1.9 4.6 -0.1
v 2 4.2 -0.1
v 2 4.4 -0.1
v 2.1 3.1 -0.1
v 2.1 3.2 -0.1
v 2.1 3.5 -0.1
v 2.1 3.6 -0.1
v 2.2 2.7 -0.1
v 2.2 3.1 -0.1
v 2.2 3.4 -0.1
v 2.2 3.5 -0.1
v 2.2 4.2 -0.1
v 2.2 4.4 -0.1
v 2.3 3.5 -0.1
v 2.3 3.6 -0.1
v 2.4 3.3 -0.1
v 2.4 3.4 -0.1
v 2.4 3.8 -0.1
v 2.4 4.1 -0.1
v 2.6 3.3 -0.1
v 2.6 3.4 -0.1
v 2.6 3.8 -0.1
v 2.6 4.1 -0.1
v 2.7 3.5 -0.1
v 2.7 3.6 -0.1
v 2.8 2.7 -0.1
v 2.8 3.1 -0.1
v 2.8 3.4 -0.1
v 2.8 3.5 -0.1
v 2.8 4.2 -0.1
v 2.8 4.4 -0.1
v 2.9 3.1 -0.1
v 2.9 3.2 -0.1
v 2.9 3.5 -0.1
v 2.9 3.6 -0.1
v 3 4.2 -0.1
v 3 4.4 -0.1
v 3.1 2.1 -0.1
v 3.1 2.2 -0.1
v 3.1 3.2 -0.1
v 3.1 3.3 -0.1
v 3.1 4.5 -0.1
v 3.1 4.6 -0.1
v 3.2 2.2 -0.1
v 3.2 2.6 -0.1
v 3.2 2.7 -0.1
v 3.2 3.3 -0.1
v 3.2 3.4 -0.1
v 3.3 3.4 -0.1
v 3.3 3.5 -0.1
v 3.3 4.6 -0.1
v 3.3 4.7 -0.1
v 3.3 4.8 -0.1
v 3.3 4.9 -0.1
v 3.4 3.5 -0.1
v 3.4 3.7 -0.1
v 3.4 3.8 -0.1
v 3.4 4.3 -0.1
v 3.4 4.4 -0.1
v 3.4 4.5 -0.1
v 3.4 4.6 -0.1
v 3.4 4.7 -0.1
v 3.4 4.8 -0.1
v 3.4 4.9 -0.1
v 3.4 5 -0.1
v 3.5 2.5 -0.1
v 3.5 2.6 -0.1
v 3.5 3.7 -0.1
v 3.5 3.8 -0.1
v 3.5 4.3 -0.1
v 3.5 4.4 -0.1
v 3.5 4.5 -0.1
v 3.5 4.6 -0.1
v 3.5 4.8 -0.1
v 3.5 5.2 -0.1
v 3.5 5.3 -0.1
v 3.6 2 -0.1
v 3.6 2.5 -0.1
v 3.6 4.4 -0.1
v 3.6 4.6 -0.1
v 3.6 5 -0.1
v 3.6 5.2 -0.1
v 3.7 2.4 -0.1
v 3.7 2.5 -0.1
v 3.8 2.3 -0.1
v 3.8 2.4 -0.1
v 3.9 2.2 -0.1
v 3.9 2.3 -0.1
v 4 2.1 -0.1
v 4 2.2 -0.1
v 4.1 2 -0.1
v 4.1 2.1 -0.1
v 0.9 2 0
v 1.4 2 0
v 3.6 2 0
v 4.1 2 0
v 0.9 2 -0.1
v 1.4 2 -0.1
v 3.6 2 -0.1
v 4.1 2 -0.1
v 2.1 3.1 0
v 2.2 3.1 0
v 2.8 3.1 0
v 2.9 3.1 0
v 2.1 3.1 -0.1
v 2.2 3.1 -0.1
v 2.8 3.1 -0.1
v 2.9 3.1 -0.1
v 1.9 3.2 0
v 2.1 3.2 0
v 2.9 3.2 0
v 3.1 3.2 0
v 1.9 3.2 -0.1
v 2.1 3.2 -0.1
v 2.9 3.2 -0.1
v 3.1 3.2 -0.1
v 1.8 3.3 0
v 1.9 3.3 0
v 3.1 3.3 0
v 3.2 3.3 0
v 1.8 3.3 -0.1
v 1.9 3.3 -0.1
v 3.1 3.3 -0.1
v 3.2 3.3 -0.1
v 1.7 3.4 0
v 1.8 3.4 0
v 3.2 3.4 0
v 3.3 3.4 0
v 1.7 3.4 -0.1
v 1.8 3.4 -0.1
v 3.2 3.4 -0.1
v 3.3 3.4 -0.1
v 1.6 3.5 0
v 1.7 3.5 0
v 3.3 3.5 0
v 3.4 3.5 0
v 1.6 3.5 -0.1
v 1.7 3.5 -0.1
v 3.3 3.5 -0.1
v 3.4 3.5 -0.1
v 1.5 3.7 0
v 1.6 3.7 0
v 3.4 3.7 0
v 3.5 3.7 0
v 1.5 3.7 -0.1
v 1.6 3.7 -0.1
v 3.4 3.7 -0.1
v 3.5 3.7 -0.1
v 3.5 4.4 0
v 3.6 4.4 0
v 3.5 4.4 -0.1
v 3.6 4.4 -0.1
v 1.4 4.5 0
v 1.6 4.5 0
v 3.4 4.5 0
v 3.5 4.5 0
v 1.4 4.5 -0.1
v 1.6 4.5 -0.1
v 3.4 4.5 -0.1
v 3.5 4.5 -0.1
v 1.6 4.9 0
v 1.7 4.9 0
v 3.3 4.9 0
v 3.4 4.9 0
v 1.6 4.9 -0.1
v 1.7 4.9 -0.1
v 3.3 4.9 -0.1
v 3.4 4.9 -0.1
v 1.4 5 0
v 1.6 5 0
v 3.4 5 0
v 3.6 5 0
v 1.4 5 -0.1
v 1.6 5 -0.1
v 3.4 5 -0.1
v 3.6 5 -0.1
v 0.9 2.1 0
v 1 2.1 0
v 4 2.1 0
v 4.1 2.1 0
v 0.9 2.1 -0.1
v 1 2.1 -0.1
v 4 2.1 -0.1
v 4.1 2.1 -0.1
v 1 2.2 0
v 1.1 2.2 0
v 3.9 2.2 0
v 4 2.2 0
v 1 2.2 -0.1
v 1.1 2.2 -0.1
v 3.9 2.2 -0.1
v 4 2.2 -0.1
v 1.1 2.3 0
v 1.2 2.3 0
v 3.8 2.3 0
v 3.9 2.3 0
v 1.1 2.3 -0.1
v 1.2 2.3 -0.1
v 3.8 2.3 -0.1
v 3.9 2.3 -0.1
v 1.2 2.4 0
v 1.3 2.4 0
v 3.7 2.4 0
v 3.8 2.4 0
v 1.2 2.4 -0.1
v 1.3 2.4 -0.1
v 3.7 2.4 -0.1
v 3.8 2.4 -0.1
v 1.3 2.5 0
v 1.4 2.5 0
v 1.5 2.5 0
v 3.5 2.5 0
v 3.6 2.5 0
v 3.7 2.5 0
v 1.3 2.5 -0.1
v 1.4 2.5 -0.1
v 1.5 2.5 -0.1
v 3.5 2.5 -0.1
v 3.6 2.5 -0.1
v 3.7 2.5 -0.1
v 1.5 2.6 0
v 1.8 2.6 0
v 3.2 2.6 0
v 3.5 2.6 0
v 1.5 2.6 -0.1
v 1.8 2.6 -0.1
v 3.2 2.6 -0.1
v 3.5 2.6 -0.1
v 1.8 2.7 0
v 2.2 2.7 0
v 2.8 2.7 0
v 3.2 2.7 0
v 1.8 2.7 -0.1
v 2.2 2.7 -0.1
v 2.8 2.7 -0.1
v 3.2 2.7 -0.1
v 1.5 4.4 0
v 1.6 4.4 0
v 3.4 4.4 0
v 3.5 4.4 0
v 1.5 4.4 -0.1
v 1.6 4.4 -0.1
v 3.4 4.4 -0.1
v 3.5 4.4 -0.1
v 1.4 4.6 0
v 1.5 4.6 0
v 3.5 4.6 0
v 3.6 4.6 0
v 1.4 4.6 -0.1
v 1.5 4.6 -0.1
v 3.5 4.6 -0.1
v 3.6 4.6 -0.1
v 1.5 4.7 0
v 1.7 4.7 0
v 3.3 4.7 0
v 3.4 4.7 0
v 1.5 4.7 -0.1
v 1.7 4.7 -0.1
v 3.3 4.7 -0.1
v 3.4 4.7 -0.1
v 3.4 4.8 0
v 3.5 4.8 0
v 3.4 4.8 -0.1
v 3.5 4.8 -0.1
v 1.4 5.2 0
v 1.5 5.2 0
v 3.5 5.2 0
v 3.6 5.2 0
v 1.4 5.2 -0.1
v 1.5 5.2 -0.1
v 3.5 5.2 -0.1
v 3.6 5.2 -0.1
v 1.5 5.3 0
v 3.5 5.3 0
v 1.5 5.3 -0.1
v 3.5 5.3 -0.1

# faces
f 3/1/1 2/1/1 1/1/1
f 4/1/1 2/1/1 3/1/1
f 7/1/1 6/1/1 5/1/1
f 8/1/1 6/1/1 7/1/1
f 11/1/1 10/1/1 9/1/1
f 12/1/1 10/1/1 11/1/1
f 15/1/1 14/1/1 13/1/1
f 16/1/1 14/1/1 15/1/1
f 19/1/1 18/1/1 17/1/1
f 20/1/1 18/1/1 19/1/1
f 23/3/1 22/3/1 21/3/1
f 24/3/1 22/3/1 23/3/1
f 27/6/1 26/6/1 25/6/1
f 28/6/1 26/6/1 27/6/1
f 31/6/1 30/6/1 29/6/1
f 32/6/1 30/6/1 31/6/1
f 35/1/1 34/1/1 33/1/1
f 36/1/1 34/1/1 35/1/1
f 37/2/1 36/2/1 35/2/1
f 38/2/1 36/2/1 37/2/1
f 39/1/1 38/1/1 37/1/1
f 40/1/1 38/1/1 39/1/1
f 43/3/1 42/3/1 41/3/1
f 44/3/1 42/3/1 43/3/1
f 47/6/1 46/6/1 45/6/1
f 48/6/1 46/6/1 47/6/1
f 51/1/1 50/1/1 49/1/1
f 52/1/1 50/1/1 51/1/1
f 55/1/1 54/1/1 53/1/1
f 56/1/1 54/1/1 55/1/1
f 59/8/1 58/8/1 57/8/1
f 60/8/1 58/8/1 59/8/1
f 63/1/1 62/1/1 61/1/1
f 64/1/1 62/1/1 63/1/1
f 67/7/1 66/7/1 65/7/1
f 68/7/1 66/7/1 67/7/1
f 69/8/1 68/8/1 67/8/1
f 70/8/1 68/8/1 69/8/1
f 73/1/1 72/1/1 71/1/1
f 74/1/1 72/1/1 73/1/1
f 77/1/1 76/1/1 75/1/1
f 78/1/1 76/1/1 77/1/1
f 81/1/1 80/1/1 79/1/1
f 82/1/1 80/1/1 81/1/1
f 85/1/1 84/1/1 83/1/1
f 86/1/1 84/1/1 85/1/1
f 89/1/1 88/1/1 87/1/1
f 90/1/1 88/1/1 89/1/1
f 93/3/1 92/3/1 91/3/1
f 94/3/1 92/3/1 93/3/1
f 97/3/1 96/3/1 95/3/1
f 98/3/1 96/3/1 97/3/1
f 99/1/2 100/1/2 101/1/2
f 101/1/2 100/1/2 102/1/2
f 103/1/2 104/1/2 105/1/2
f 105/1/2 104/1/2 106/1/2
f 107/1/2 108/1/2 109/1/2
f 109/1/2 108/1/2 110/1/2
f 111/1/2 112/1/2 113/1/2
f 113/1/2 112/1/2 114/1/2
f 115/1/2 116/1/2 117/1/2
f 117/1/2 116/1/2 118/1/2
f 119/1/2 120/1/2 121/1/2
f 121/1/2 120/1/2 122/1/2
f 123/7/2 124/7/2 125/7/2
f 125/7/2 124/7/2 126/7/2
f 125/8/2 126/8/2 127/8/2
f 127/8/2 126/8/2 128/8/2
f 129/1/2 130/1/2 131/1/2
f 131/1/2 130/1/2 132/1/2
f 133/1/2 134/1/2 135/1/2
f 135/1/2 134/1/2 136/1/2
f 137/8/2 138/8/2 139/8/2
f 139/8/2 138/8/2 140/8/2
f 141/6/2 142/6/2 143/6/2
f 143/6/2 142/6/2 144/6/2
f 145/1/2 146/1/2 147/1/2
f 147/1/2 146/1/2 148/1/2
f 147/2/2 148/2/2 149/2/2
f 149/2/2 148/2/2 150/2/2
f 149/1/2 150/1/2 151/1/2
f 151/1/2 150/1/2 152/1/2
f 153/3/2 154/3/2 155/3/2
f 155/3/2 154/3/2 156/3/2
f 157/6/2 158/6/2 159/6/2
f 159/6/2 158/6/2 160/6/2
f 161/3/2 162/3/2 163/3/2
f 163/3/2 162/3/2 164/3/2
f 165/6/2 166/6/2 167/6/2
f 167/6/2 166/6/2 168/6/2
f 169/1/2 170/1/2 171/1/2
f 171/1/2 170/1/2 172/1/2
f 173/1/2 174/1/2 175/1/2
f 175/1/2 174/1/2 176/1/2
f 177/1/2 178/1/2 179/1/2
f 179/1/2 178/1/2 180/1/2
f 181/1/2 182/1/2 183/1/2
f 183/1/2 182/1/2 184/1/2
f 185/1/2 186/1/2 187/1/2
f 187/1/2 186/1/2 188/1/2
f 191/1/3 190/1/3 189/1/3
f 193/1/3 192/1/3 191/1/3
f 195/1/3 194/1/3 193/1/3
f 197/1/3 196/1/3 195/1/3
f 199/1/3 191/1/3 189/1/3
f 199/1/3 198/1/3 197/1/3
f 199/1/3 197/1/3 195/1/3
f 199/1/3 195/1/3 193/1/3
f 199/1/3 193/1/3 191/1/3
f 200/1/3 198/1/3 199/1/3
f 205/6/3 200/6/3 199/6/3
f 211/3/3 202/3/3 201/3/3
f 213/6/3 204/6/3 203/6/3
f 216/1/3 208/1/3 207/1/3
f 217/2/3 209/2/3 208/2/3
f 217/1/3 208/1/3 216/1/3
f 218/1/3 210/1/3 209/1/3
f 218/2/3 209/2/3 217/2/3
f 219/1/3 210/1/3 218/1/3
f 220/3/3 212/3/3 211/3/3
f 220/3/3 211/3/3 201/3/3
f 221/3/3 212/3/3 220/3/3
f 223/6/3 214/6/3 213/6/3
f 223/6/3 213/6/3 203/6/3
f 225/1/3 219/1/3 218/1/3
f 225/1/3 217/1/3 216/1/3
f 225/1/3 216/1/3 215/1/3
f 225/1/3 218/1/3 217/1/3
f 225/1/3 220/1/3 219/1/3
f 225/1/3 221/1/3 220/1/3
f 226/3/3 212/3/3 221/3/3
f 226/1/3 221/1/3 225/1/3
f 227/3/3 212/3/3 226/3/3
f 229/8/3 223/8/3 222/8/3
f 230/6/3 205/6/3 199/6/3
f 230/6/3 206/6/3 205/6/3
f 231/6/3 206/6/3 230/6/3
f 234/1/3 225/1/3 224/1/3
f 234/1/3 226/1/3 225/1/3
f 235/6/3 230/6/3 199/6/3
f 236/1/3 232/1/3 231/1/3
f 236/6/3 230/6/3 235/6/3
f 236/1/3 231/1/3 230/1/3
f 238/1/3 234/1/3 233/1/3
f 239/1/3 226/1/3 234/1/3
f 239/1/3 234/1/3 238/1/3
f 240/7/3 228/7/3 227/7/3
f 240/1/3 226/1/3 239/1/3
f 240/7/3 227/7/3 226/7/3
f 241/1/3 239/1/3 238/1/3
f 241/1/3 238/1/3 237/1/3
f 242/1/3 239/1/3 241/1/3
f 244/1/3 241/1/3 237/1/3
f 245/1/3 241/1/3 244/1/3
f 246/1/3 241/1/3 245/1/3
f 247/1/3 232/1/3 236/1/3
f 247/1/3 236/1/3 235/1/3
f 248/1/3 244/1/3 243/1/3
f 248/1/3 245/1/3 244/1/3
f 249/1/3 245/1/3 248/1/3
f 250/5/3 246/5/3 245/5/3
f 250/1/3 245/1/3 249/1/3
f 251/1/3 241/1/3 246/1/3
f 251/4/3 242/4/3 241/4/3
f 252/1/3 239/1/3 242/1/3
f 252/4/3 242/4/3 251/4/3
f 253/5/3 246/5/3 250/5/3
f 253/5/3 250/5/3 249/5/3
f 254/1/3 251/1/3 246/1/3
f 254/5/3 246/5/3 253/5/3
f 254/1/3 252/1/3 251/1/3
f 255/1/3 249/1/3 248/1/3
f 255/1/3 248/1/3 247/1/3
f 256/5/3 253/5/3 249/5/3
f 256/1/3 249/1/3 255/1/3
f 257/1/3 252/1/3 254/1/3
f 257/1/3 254/1/3 253/1/3
f 258/1/3 252/1/3 257/1/3
f 259/1/3 255/1/3 247/1/3
f 259/5/3 256/5/3 255/5/3
f 260/5/3 253/5/3 256/5/3
f 260/5/3 256/5/3 259/5/3
f 261/2/3 258/2/3 257/2/3
f 261/1/3 257/1/3 253/1/3
f 262/1/3 252/1/3 258/1/3
f 262/2/3 258/2/3 261/2/3
f 263/1/3 261/1/3 253/1/3
f 263/5/3 253/5/3 260/5/3
f 263/1/3 262/1/3 261/1/3
f 264/1/3 262/1/3 263/1/3
f 265/1/3 259/1/3 247/1/3
f 265/1/3 260/1/3 259/1/3
f 265/1/3 247/1/3 235/1/3
f 266/1/3 260/1/3 265/1/3
f 267/5/3 264/5/3 263/5/3
f 267/1/3 260/1/3 266/1/3
f 267/5/3 263/5/3 260/5/3
f 268/5/3 264/5/3 267/5/3
f 269/1/3 262/1/3 264/1/3
f 269/1/3 252/1/3 262/1/3
f 270/1/3 239/1/3 252/1/3
f 270/1/3 252/1/3 269/1/3
f 271/1/3 268/1/3 267/1/3
f 271/1/3 267/1/3 266/1/3
f 272/1/3 268/1/3 271/1/3
f 273/5/3 264/5/3 268/5/3
f 273/1/3 268/1/3 272/1/3
f 274/1/3 269/1/3 264/1/3
f 274/5/3 264/5/3 273/5/3
f 275/1/3 273/1/3 272/1/3
f 275/1/3 269/1/3 274/1/3
f 275/1/3 274/1/3 273/1/3
f 275/4/3 270/4/3 269/4/3
f 276/1/3 239/1/3 270/1/3
f 276/4/3 270/4/3 275/4/3
f 277/6/3 235/6/3 199/6/3
f 277/1/3 265/1/3 235/1/3
f 278/1/3 265/1/3 277/1/3
f 279/1/3 275/1/3 272/1/3
f 279/1/3 276/1/3 275/1/3
f 280/1/3 276/1/3 279/1/3
f 281/1/3 239/1/3 276/1/3
f 281/1/3 276/1/3 280/1/3
f 281/7/3 240/7/3 239/7/3
f 282/7/3 228/7/3 240/7/3
f 282/7/3 240/7/3 281/7/3
f 283/1/3 265/1/3 278/1/3
f 283/6/3 278/6/3 277/6/3
f 284/1/3 265/1/3 283/1/3
f 285/1/3 265/1/3 284/1/3
f 286/1/3 281/1/3 280/1/3
f 286/1/3 282/1/3 281/1/3
f 287/1/3 282/1/3 286/1/3
f 288/1/3 282/1/3 287/1/3
f 289/1/3 282/1/3 288/1/3
f 290/7/3 228/7/3 282/7/3
f 290/1/3 282/1/3 289/1/3
f 291/7/3 228/7/3 290/7/3
f 292/8/3 229/8/3 228/8/3
f 292/7/3 228/7/3 291/7/3
f 293/8/3 223/8/3 229/8/3
f 293/8/3 229/8/3 292/8/3
f 294/1/3 290/1/3 289/1/3
f 295/1/3 290/1/3 294/1/3
f 296/1/3 290/1/3 295/1/3
f 297/1/3 290/1/3 296/1/3
f 298/1/3 290/1/3 297/1/3
f 299/1/3 290/1/3 298/1/3
f 300/3/3 291/3/3 290/3/3
f 300/1/3 290/1/3 299/1/3
f 301/3/3 291/3/3 300/3/3
f 303/8/3 223/8/3 293/8/3
f 304/6/3 214/6/3 223/6/3
f 304/8/3 223/8/3 303/8/3
f 305/6/3 284/6/3 283/6/3
f 306/6/3 284/6/3 305/6/3
f 307/1/3 296/1/3 295/1/3
f 308/2/3 297/2/3 296/2/3
f 308/1/3 296/1/3 307/1/3
f 309/1/3 298/1/3 297/1/3
f 309/2/3 297/2/3 308/2/3
f 310/1/3 298/1/3 309/1/3
f 311/3/3 302/3/3 301/3/3
f 311/3/3 301/3/3 300/3/3
f 311/3/3 300/3/3 299/3/3
f 312/3/3 302/3/3 311/3/3
f 313/3/3 302/3/3 312/3/3
f 314/6/3 214/6/3 304/6/3
f 315/6/3 214/6/3 314/6/3
f 316/6/3 277/6/3 199/6/3
f 316/6/3 283/6/3 277/6/3
f 316/6/3 305/6/3 283/6/3
f 317/6/3 305/6/3 316/6/3
f 318/3/3 312/3/3 311/3/3
f 318/3/3 311/3/3 310/3/3
f 319/3/3 312/3/3 318/3/3
f 320/6/3 314/6/3 304/6/3
f 321/6/3 314/6/3 320/6/3
f 322/1/3 317/1/3 316/1/3
f 323/1/3 317/1/3 322/1/3
f 324/1/3 322/1/3 316/1/3
f 325/1/3 322/1/3 324/1/3
f 326/1/3 324/1/3 316/1/3
f 327/1/3 324/1/3 326/1/3
f 328/1/3 326/1/3 316/1/3
f 329/1/3 326/1/3 328/1/3
f 330/1/3 328/1/3 316/1/3
f 331/1/3 328/1/3 330/1/3
f 332/1/4 333/1/4 334/1/4
f 334/1/4 335/1/4 336/1/4
f 336/1/4 337/1/4 338/1/4
f 338/1/4 339/1/4 340/1/4
f 332/1/4 334/1/4 342/1/4
f 340/1/4 341/1/4 342/1/4
f 338/1/4 340/1/4 342/1/4
f 336/1/4 338/1/4 342/1/4
f 334/1/4 336/1/4 342/1/4
f 342/1/4 341/1/4 343/1/4
f 342/6/4 343/6/4 348/6/4
f 344/3/4 345/3/4 354/3/4
f 346/6/4 347/6/4 356/6/4
f 350/1/4 351/1/4 359/1/4
f 351/2/4 352/2/4 360/2/4
f 359/1/4 351/1/4 360/1/4
f 352/1/4 353/1/4 361/1/4
f 360/2/4 352/2/4 361/2/4
f 361/1/4 353/1/4 362/1/4
f 354/3/4 355/3/4 363/3/4
f 344/3/4 354/3/4 363/3/4
f 363/3/4 355/3/4 364/3/4
f 356/6/4 357/6/4 366/6/4
f 346/6/4 356/6/4 366/6/4
f 361/1/4 362/1/4 368/1/4
f 359/1/4 360/1/4 368/1/4
f 358/1/4 359/1/4 368/1/4
f 360/1/4 361/1/4 368/1/4
f 362/1/4 363/1/4 368/1/4
f 363/1/4 364/1/4 368/1/4
f 364/3/4 355/3/4 369/3/4
f 368/1/4 364/1/4 369/1/4
f 369/3/4 355/3/4 370/3/4
f 365/8/4 366/8/4 372/8/4
f 342/6/4 348/6/4 373/6/4
f 348/6/4 349/6/4 373/6/4
f 373/6/4 349/6/4 374/6/4
f 367/1/4 368/1/4 377/1/4
f 368/1/4 369/1/4 377/1/4
f 342/6/4 373/6/4 378/6/4
f 374/1/4 375/1/4 379/1/4
f 378/6/4 373/6/4 379/6/4
f 373/1/4 374/1/4 379/1/4
f 376/1/4 377/1/4 381/1/4
f 377/1/4 369/1/4 382/1/4
f 381/1/4 377/1/4 382/1/4
f 370/7/4 371/7/4 383/7/4
f 382/1/4 369/1/4 383/1/4
f 369/7/4 370/7/4 383/7/4
f 381/1/4 382/1/4 384/1/4
f 380/1/4 381/1/4 384/1/4
f 384/1/4 382/1/4 385/1/4
f 380/1/4 384/1/4 387/1/4
f 387/1/4 384/1/4 388/1/4
f 388/1/4 384/1/4 389/1/4
f 379/1/4 375/1/4 390/1/4
f 378/1/4 379/1/4 390/1/4
f 386/1/4 387/1/4 391/1/4
f 387/1/4 388/1/4 391/1/4
f 391/1/4 388/1/4 392/1/4
f 388/5/4 389/5/4 393/5/4
f 392/1/4 388/1/4 393/1/4
f 389/1/4 384/1/4 394/1/4
f 384/4/4 385/4/4 394/4/4
f 385/1/4 382/1/4 395/1/4
f 394/4/4 385/4/4 395/4/4
f 393/5/4 389/5/4 396/5/4
f 392/5/4 393/5/4 396/5/4
f 389/1/4 394/1/4 397/1/4
f 396/5/4 389/5/4 397/5/4
f 394/1/4 395/1/4 397/1/4
f 391/1/4 392/1/4 398/1/4
f 390/1/4 391/1/4 398/1/4
f 392/5/4 396/5/4 399/5/4
f 398/1/4 392/1/4 399/1/4
f 397/1/4 395/1/4 400/1/4
f 396/1/4 397/1/4 400/1/4
f 400/1/4 395/1/4 401/1/4
f 390/1/4 398/1/4 402/1/4
f 398/5/4 399/5/4 402/5/4
f 399/5/4 396/5/4 403/5/4
f 402/5/4 399/5/4 403/5/4
f 400/2/4 401/2/4 404/2/4
f 396/1/4 400/1/4 404/1/4
f 401/1/4 395/1/4 405/1/4
f 404/2/4 401/2/4 405/2/4
f 396/1/4 404/1/4 406/1/4
f 403/5/4 396/5/4 406/5/4
f 404/1/4 405/1/4 406/1/4
f 406/1/4 405/1/4 407/1/4
f 390/1/4 402/1/4 408/1/4
f 402/1/4 403/1/4 408/1/4
f 378/1/4 390/1/4 408/1/4
f 408/1/4 403/1/4 409/1/4
f 406/5/4 407/5/4 410/5/4
f 409/1/4 403/1/4 410/1/4
f 403/5/4 406/5/4 410/5/4
f 410/5/4 407/5/4 411/5/4
f 407/1/4 405/1/4 412/1/4
f 405/1/4 395/1/4 412/1/4
f 395/1/4 382/1/4 413/1/4
f 412/1/4 395/1/4 413/1/4
f 410/1/4 411/1/4 414/1/4
f 409/1/4 410/1/4 414/1/4
f 414/1/4 411/1/4 415/1/4
f 411/5/4 407/5/4 416/5/4
f 415/1/4 411/1/4 416/1/4
f 407/1/4 412/1/4 417/1/4
f 416/5/4 407/5/4 417/5/4
f 415/1/4 416/1/4 418/1/4
f 417/1/4 412/1/4 418/1/4
f 416/1/4 417/1/4 418/1/4
f 412/4/4 413/4/4 418/4/4
f 413/1/4 382/1/4 419/1/4
f 418/4/4 413/4/4 419/4/4
f 342/6/4 378/6/4 420/6/4
f 378/1/4 408/1/4 420/1/4
f 420/1/4 408/1/4 421/1/4
f 415/1/4 418/1/4 422/1/4
f 418/1/4 419/1/4 422/1/4
f 422/1/4 419/1/4 423/1/4
f 419/1/4 382/1/4 424/1/4
f 423/1/4 419/1/4 424/1/4
f 382/7/4 383/7/4 424/7/4
f 383/7/4 371/7/4 425/7/4
f 424/7/4 383/7/4 425/7/4
f 421/1/4 408/1/4 426/1/4
f 420/6/4 421/6/4 426/6/4
f 426/1/4 408/1/4 427/1/4
f 427/1/4 408/1/4 428/1/4
f 423/1/4 424/1/4 429/1/4
f 424/1/4 425/1/4 429/1/4
f 429/1/4 425/1/4 430/1/4
f 430/1/4 425/1/4 431/1/4
f 431/1/4 425/1/4 432/1/4
f 425/7/4 371/7/4 433/7/4
f 432/1/4 425/1/4 433/1/4
f 433/7/4 371/7/4 434/7/4
f 371/8/4 372/8/4 435/8/4
f 434/7/4 371/7/4 435/7/4
f 372/8/4 366/8/4 436/8/4
f 435/8/4 372/8/4 436/8/4
f 432/1/4 433/1/4 437/1/4
f 437/1/4 433/1/4 438/1/4
f 438/1/4 433/1/4 439/1/4
f 439/1/4 433/1/4 440/1/4
f 440/1/4 433/1/4 441/1/4
f 441/1/4 433/1/4 442/1/4
f 433/3/4 434/3/4 443/3/4
f 442/1/4 433/1/4 443/1/4
f 443/3/4 434/3/4 444/3/4
f 436/8/4 366/8/4 446/8/4
f 366/6/4 357/6/4 447/6/4
f 446/8/4 366/8/4 447/8/4
f 426/6/4 427/6/4 448/6/4
f 448/6/4 427/6/4 449/6/4
f 438/1/4 439/1/4 450/1/4
f 439/2/4 440/2/4 451/2/4
f 450/1/4 439/1/4 451/1/4
f 440/1/4 441/1/4 452/1/4
f 451/2/4 440/2/4 452/2/4
f 452/1/4 441/1/4 453/1/4
f 444/3/4 445/3/4 454/3/4
f 443/3/4 444/3/4 454/3/4
f 442/3/4 443/3/4 454/3/4
f 454/3/4 445/3/4 455/3/4
f 455/3/4 445/3/4 456/3/4
f 447/6/4 357/6/4 457/6/4
f 457/6/4 357/6/4 458/6/4
f 342/6/4 420/6/4 459/6/4
f 420/6/4 426/6/4 459/6/4
f 426/6/4 448/6/4 459/6/4
f 459/6/4 448/6/4 460/6/4
f 454/3/4 455/3/4 461/3/4
f 453/3/4 454/3/4 461/3/4
f 461/3/4 455/3/4 462/3/4
f 447/6/4 457/6/4 463/6/4
f 463/6/4 457/6/4 464/6/4
f 459/1/4 460/1/4 465/1/4
f 465/1/4 460/1/4 466/1/4
f 459/1/4 465/1/4 467/1/4
f 467/1/4 465/1/4 468/1/4
f 459/1/4 467/1/4 469/1/4
f 469/1/4 467/1/4 470/1/4
f 459/1/4 469/1/4 471/1/4
f 471/1/4 469/1/4 472/1/4
f 459/1/4 471/1/4 473/1/4
f 473/1/4 471/1/4 474/1/4
f 479/1/5 476/1/5 475/1/5
f 480/6/5 477/6/5 476/6/5
f 480/1/5 476/1/5 479/1/5
f 481/1/5 478/1/5 477/1/5
f 481/6/5 477/6/5 480/6/5
f 482/1/5 478/1/5 481/1/5
f 487/1/5 484/1/5 483/1/5
f 488/1/5 484/1/5 487/1/5
f 489/1/5 486/1/5 485/1/5
f 490/1/5 486/1/5 489/1/5
f 495/1/5 492/1/5 491/1/5
f 496/1/5 492/1/5 495/1/5
f 497/1/5 494/1/5 493/1/5
f 498/1/5 494/1/5 497/1/5
f 503/1/5 500/1/5 499/1/5
f 504/1/5 500/1/5 503/1/5
f 505/1/5 502/1/5 501/1/5
f 506/1/5 502/1/5 505/1/5
f 511/1/5 508/1/5 507/1/5
f 512/1/5 508/1/5 511/1/5
f 513/1/5 510/1/5 509/1/5
f 514/1/5 510/1/5 513/1/5
f 519/1/5 516/1/5 515/1/5
f 520/1/5 516/1/5 519/1/5
f 521/1/5 518/1/5 517/1/5
f 522/1/5 518/1/5 521/1/5
f 527/1/5 524/1/5 523/1/5
f 528/1/5 524/1/5 527/1/5
f 529/1/5 526/1/5 525/1/5
f 530/1/5 526/1/5 529/1/5
f 533/3/5 532/3/5 531/3/5
f 534/3/5 532/3/5 533/3/5
f 539/3/5 536/3/5 535/3/5
f 540/3/5 536/3/5 539/3/5
f 541/3/5 538/3/5 537/3/5
f 542/3/5 538/3/5 541/3/5
f 547/8/5 544/8/5 543/8/5
f 548/8/5 544/8/5 547/8/5
f 549/8/5 546/8/5 545/8/5
f 550/8/5 546/8/5 549/8/5
f 555/6/5 552/6/5 551/6/5
f 556/6/5 552/6/5 555/6/5
f 557/6/5 554/6/5 553/6/5
f 558/6/5 554/6/5 557/6/5
f 559/1/6 560/1/6 563/1/6
f 563/1/6 560/1/6 564/1/6
f 561/1/6 562/1/6 565/1/6
f 565/1/6 562/1/6 566/1/6
f 567/1/6 568/1/6 571/1/6
f 571/1/6 568/1/6 572/1/6
f 569/1/6 570/1/6 573/1/6
f 573/1/6 570/1/6 574/1/6
f 575/1/6 576/1/6 579/1/6
f 579/1/6 576/1/6 580/1/6
f 577/1/6 578/1/6 581/1/6
f 581/1/6 578/1/6 582/1/6
f 583/1/6 584/1/6 587/1/6
f 587/1/6 584/1/6 588/1/6
f 585/1/6 586/1/6 589/1/6
f 589/1/6 586/1/6 590/1/6
f 591/1/6 592/1/6 597/1/6
f 592/6/6 593/6/6 598/6/6
f 597/1/6 592/1/6 598/1/6
f 598/6/6 593/6/6 599/6/6
f 594/6/6 595/6/6 600/6/6
f 595/1/6 596/1/6 601/1/6
f 600/6/6 595/6/6 601/6/6
f 601/1/6 596/1/6 602/1/6
f 603/6/6 604/6/6 607/6/6
f 607/6/6 604/6/6 608/6/6
f 605/6/6 606/6/6 609/6/6
f 609/6/6 606/6/6 610/6/6
f 611/1/6 612/1/6 615/1/6
f 615/1/6 612/1/6 616/1/6
f 613/1/6 614/1/6 617/1/6
f 617/1/6 614/1/6 618/1/6
f 619/1/6 620/1/6 623/1/6
f 623/1/6 620/1/6 624/1/6
f 621/1/6 622/1/6 625/1/6
f 625/1/6 622/1/6 626/1/6
f 627/3/6 628/3/6 631/3/6
f 631/3/6 628/3/6 632/3/6
f 629/3/6 630/3/6 633/3/6
f 633/3/6 630/3/6 634/3/6
f 635/3/6 636/3/6 639/3/6
f 639/3/6 636/3/6 640/3/6
f 637/3/6 638/3/6 641/3/6
f 641/3/6 638/3/6 642/3/6
f 643/3/6 644/3/6 645/3/6
f 645/3/6 644/3/6 646/3/6
f 647/6/6 648/6/6 651/6/6
f 651/6/6 648/6/6 652/6/6
f 649/6/6 650/6/6 653/6/6
f 653/6/6 650/6/6 654/6/6
f 655/6/6 656/6/6 657/6/6
f 657/6/6 656/6/6 658/6/6
